<svg xmlns="http://www.w3.org/2000/svg" width="25.005" height="25" viewBox="0 0 25.005 25">
  <path id="icons8-circled-envelope" d="M15.511,3c-.2,0-.385,0-.583.01A12.5,12.5,0,0,0,15.49,28c.2,0,.385,0,.583-.01A12.5,12.5,0,0,0,15.511,3Zm-2.6,13.406.031.021,1.427.708.031.01.635.323a1,1,0,0,0,.937,0l.594-.3.031-.01,1.594-.792.01-.01,3.4-1.7,1.2-.594v5.6a1.045,1.045,0,0,1-1.042,1.042H9.25a1.045,1.045,0,0,1-1.042-1.042v-5.6l1.229.615Zm9.313-4.385-3.427,1.708-.01.01L15.5,15.375,12.344,13.8l-.01-.01L8.781,12.021a1.045,1.045,0,0,1-.573-.937v-.792H22.792v.792A1.033,1.033,0,0,1,22.219,12.021Z" transform="translate(-2.997 -3)" fill="#fff"/>
</svg>
