<?xml version="1.0" standalone="no"?>
<!DOCTYPE svg PUBLIC "-//W3C//DTD SVG 20010904//EN"
 "http://www.w3.org/TR/2001/REC-SVG-20010904/DTD/svg10.dtd">
<svg version="1.0" xmlns="http://www.w3.org/2000/svg"
 width="120pt" height="120pt" viewBox="0 0 120.000000 120.000000"
 preserveAspectRatio="xMidYMid meet">

<g transform="translate(0.000000,120.000000) scale(0.100000,-0.100000)"
fill="#000000" stroke="none">
<path d="M527 1138 c-54 -14 -130 -87 -157 -150 -45 -105 -13 -241 72 -313 48
-41 90 -55 160 -55 150 0 258 125 246 284 -14 169 -161 276 -321 234z"/>
<path d="M315 645 c-92 -32 -150 -158 -150 -325 0 -81 4 -102 25 -145 39 -78
73 -95 190 -95 l98 0 -19 37 c-98 192 180 348 293 165 29 -48 29 -116 0 -166
l-22 -38 104 4 c113 3 136 13 180 72 44 58 30 269 -24 383 -31 67 -65 98 -122
114 -37 10 -43 8 -91 -25 -127 -87 -238 -86 -359 3 -48 35 -48 35 -103 16z"/>
<path d="M519 326 c-70 -48 -88 -136 -44 -211 60 -103 218 -98 269 9 36 75 11
165 -56 206 -48 29 -123 27 -169 -4z m150 -52 c12 -15 21 -33 21 -41 0 -17
-63 -76 -86 -79 -28 -4 -29 28 -1 52 15 13 27 28 27 34 0 14 -26 13 -50 -2
-16 -10 -23 -10 -36 4 -15 15 -15 17 5 37 32 32 93 29 120 -5z m-39 -159 c0
-20 -5 -25 -25 -25 -20 0 -25 5 -25 25 0 20 5 25 25 25 20 0 25 -5 25 -25z"/>
</g>
</svg>
