<svg xmlns="http://www.w3.org/2000/svg" xmlns:xlink="http://www.w3.org/1999/xlink" viewBox="0,0,256,256" width="120px" height="120px" fill-rule="nonzero"><g fill="#ffffff" fill-rule="nonzero" stroke="none" stroke-width="1" stroke-linecap="butt" stroke-linejoin="miter" stroke-miterlimit="10" stroke-dasharray="" stroke-dashoffset="0" font-family="none" font-weight="none" font-size="none" text-anchor="none" style="mix-blend-mode: normal"><g transform="scale(8.53333,8.53333)"><path d="M2,24h17c1.1,0 2,-0.9 2,-2v-14c0,-1.1 -0.9,-2 -2,-2h-17c-1.1,0 -2,0.9 -2,2v14c0,1.1 0.9,2 2,2zM10.5,12c1.66,0 3,1.34 3,3c0,1.66 -1.34,3 -3,3c-1.66,0 -3,-1.34 -3,-3c0,-1.66 1.34,-3 3,-3zM29,8c-0.252,0 -0.475,0.101 -0.651,0.255l-0.01,-0.005l-5.339,4.75v2v2l5.339,4.75l0.011,-0.005c0.175,0.154 0.398,0.255 0.65,0.255c0.552,0 1,-0.448 1,-1v-6v-6c0,-0.552 -0.448,-1 -1,-1z"></path></g></g></svg>