<svg fill="#000000" xmlns="http://www.w3.org/2000/svg"  viewBox="0 0 30 30" width="120px" height="120px"><path d="M 6.9902344 3.9902344 A 1.0001 1.0001 0 0 0 6.2929688 5.7070312 L 15.585938 15 L 6.2929688 24.292969 A 1.0001 1.0001 0 1 0 7.7070312 25.707031 L 17.707031 15.707031 A 1.0001 1.0001 0 0 0 17.707031 14.292969 L 7.7070312 4.2929688 A 1.0001 1.0001 0 0 0 6.9902344 3.9902344 z M 13.990234 3.9902344 A 1.0001 1.0001 0 0 0 13.292969 5.7070312 L 22.585938 15 L 13.292969 24.292969 A 1.0001 1.0001 0 1 0 14.707031 25.707031 L 24.707031 15.707031 A 1.0001 1.0001 0 0 0 24.707031 14.292969 L 14.707031 4.2929688 A 1.0001 1.0001 0 0 0 13.990234 3.9902344 z"/></svg>