<svg xmlns="http://www.w3.org/2000/svg" xmlns:xlink="http://www.w3.org/1999/xlink" viewBox="0,0,256,256" width="120px" height="120px" fill-rule="nonzero"><g fill="#ffffff" fill-rule="nonzero" stroke="none" stroke-width="1" stroke-linecap="butt" stroke-linejoin="miter" stroke-miterlimit="10" stroke-dasharray="" stroke-dashoffset="0" font-family="none" font-weight="none" font-size="none" text-anchor="none" style="mix-blend-mode: normal"><g transform="scale(8.53333,8.53333)"><path d="M8.5,2c-3.032,0 -5.5,2.468 -5.5,5.5c0,1.704 0.779,3.22828 2,4.23828v-4.23828c0,-1.93 1.57,-3.5 3.5,-3.5c1.93,0 3.5,1.57 3.5,3.5v0.33203c-0.01785,0.10799 -0.01785,0.21818 0,0.32617v3.58008c0.84756,-0.70109 1.47431,-1.65327 1.7832,-2.73828h8.2168v2c0,0.256 0.09797,0.51203 0.29297,0.70703c0.39,0.391 1.02406,0.391 1.41406,0l3,-3c0.391,-0.39 0.391,-1.02306 0,-1.41406l-3,-3c-0.39,-0.391 -1.02306,-0.391 -1.41406,0c-0.195,0.195 -0.29297,0.45103 -0.29297,0.70703v2h-8.02539c-0.25423,-2.79802 -2.61163,-5 -5.47461,-5zM8.5,6c-0.828,0 -1.5,0.672 -1.5,1.5v6.5v2v2l-1.10547,1.4707c-1.136,1.515 -1.19358,3.5822 -0.14258,5.1582l0.76367,1.14453c0.928,1.391 2.48916,2.22656 4.16016,2.22656h6.32422c2.209,0 4,-1.791 4,-4v-6.26172c0,-1.551 -1.18352,-2.84633 -2.72852,-2.98633l-8.27148,-0.75195v-6.5c0,-0.828 -0.672,-1.5 -1.5,-1.5z"></path></g></g></svg>