<svg xmlns="http://www.w3.org/2000/svg" xmlns:xlink="http://www.w3.org/1999/xlink" viewBox="0,0,256,256" width="120px" height="120px" fill-rule="nonzero"><g fill="#ffffff" fill-rule="nonzero" stroke="none" stroke-width="1" stroke-linecap="butt" stroke-linejoin="miter" stroke-miterlimit="10" stroke-dasharray="" stroke-dashoffset="0" font-family="none" font-weight="none" font-size="none" text-anchor="none" style="mix-blend-mode: normal"><g transform="scale(8.53333,8.53333)"><path d="M5,5c-1.64497,0 -3,1.35503 -3,3v13c0,0.76858 0.30412,1.46665 0.78711,2h-2.78711c0,1.657 1.343,3 3,3h24c1.657,0 3,-1.343 3,-3h-2.78711c0.48298,-0.53335 0.78711,-1.23142 0.78711,-2v-13c0,-1.64497 -1.35503,-3 -3,-3zM5,7h20c0.56503,0 1,0.43497 1,1v13c0,0.56503 -0.43497,1 -1,1h-20c-0.56503,0 -1,-0.43497 -1,-1v-13c0,-0.56503 0.43497,-1 1,-1zM12.77734,10c-0.43,0 -0.77734,0.34734 -0.77734,0.77734v7c0,0.43 0.34734,0.7793 0.77734,0.7793c0.224,0 0.42245,-0.098 0.56445,-0.25l0.00391,0.00195l1.29883,-1.5332l1.33594,2.67188c0.15976,0.31965 0.47792,0.52977 0.83463,0.5512c0.3567,0.02143 0.69774,-0.14909 0.89462,-0.44731c0.19688,-0.29822 0.21968,-0.67883 0.05981,-0.99842l-1.38477,-2.76953l2.05273,-0.36914l0.00195,-0.01367c0.321,-0.095 0.56055,-0.37942 0.56055,-0.73242c0,-0.272 -0.14838,-0.49967 -0.35937,-0.63867l0.00195,-0.01562l-5.33984,-3.80859l-0.00391,0.00195c-0.138,-0.126 -0.31948,-0.20703 -0.52148,-0.20703z"></path></g></g></svg>