<?xml version="1.0"?><svg fill="#000000" xmlns="http://www.w3.org/2000/svg"  viewBox="0 0 30 30" width="120px" height="120px">    <path d="M 14.28125 2.0039062 C 8.86125 1.8659063 4.0044844 5.8295938 3.1464844 11.183594 C 2.5044844 15.191594 4.031375 18.872953 6.734375 21.251953 C 7.564375 21.981953 8 23.061969 8 24.167969 L 8 28 L 18 28 L 18 26.441406 C 18 25.580406 18.550187 24.816922 19.367188 24.544922 L 22.632812 23.457031 C 23.448813 23.184031 24 22.419594 24 21.558594 L 24 17.744141 L 26.267578 16.962891 A 1 1 0 0 0 27 16 A 1 1 0 0 0 26.773438 15.369141 L 26.746094 15.335938 A 1 1 0 0 0 26.716797 15.302734 L 23.958984 11.998047 C 23.5582 6.4851023 19.861766 2.1444805 14.28125 2.0039062 z M 14.005859 8 C 16.212486 8.0042383 18 9.79325 18 12 C 18 13.088 17.561516 14.066203 16.853516 14.783203 C 16.515516 15.125203 16.285484 15.548 16.146484 16 L 11.853516 16 C 11.719516 15.553 11.497109 15.135781 11.162109 14.800781 C 10.231109 13.868781 9.7560938 12.487094 10.121094 10.996094 C 10.467094 9.5820938 11.622062 8.4413281 13.039062 8.1113281 C 13.367437 8.0350781 13.690627 7.9993945 14.005859 8 z M 12 17 L 15.990234 17 C 15.943234 17.954 15.283937 18.817656 14.335938 18.972656 C 13.082937 19.175656 12 18.215 12 17 z"/></svg>