<svg xmlns="http://www.w3.org/2000/svg" xmlns:xlink="http://www.w3.org/1999/xlink" viewBox="0,0,256,256" width="120px" height="120px" fill-rule="nonzero"><g fill="#ffffff" fill-rule="nonzero" stroke="none" stroke-width="1" stroke-linecap="butt" stroke-linejoin="miter" stroke-miterlimit="10" stroke-dasharray="" stroke-dashoffset="0" font-family="none" font-weight="none" font-size="none" text-anchor="none" style="mix-blend-mode: normal"><g transform="scale(8.53333,8.53333)"><path d="M15,2c-5.523,0 -10,4.477 -10,10v6c0,5.523 4.477,10 10,10c5.523,0 10,-4.477 10,-10v-6c0,-5.523 -4.477,-10 -10,-10zM14,6c0,-0.552 0.448,-1 1,-1c0.552,0 1,0.448 1,1v3c0,0.552 -0.448,1 -1,1c-0.552,0 -1,-0.448 -1,-1zM22,15h-14c-0.552,0 -1,-0.448 -1,-1c0,-0.552 0.448,-1 1,-1h14c0.552,0 1,0.448 1,1c0,0.552 -0.448,1 -1,1z"></path></g></g></svg>